<svg width="71" height="32" fill="none" xmlns="http://www.w3.org/2000/svg"><path d="M45.267 7.766c1.786 0 3.236-1.44 3.236-3.214 0-1.773-1.45-3.214-3.236-3.214-1.786 0-3.236 1.44-3.236 3.214 0 1.78 1.45 3.214 3.236 3.214ZM11.967 10.17c1.054.762 1.645 1.882 1.322 3.48l-2.084 11.071c-.305 1.804-2.054 2.99-3.87 2.651-1.712-.327-2.973-1.925-2.632-3.843l1.182-6.41-.737.332a2.712 2.712 0 0 1-3.584-1.368 2.723 2.723 0 0 1 1.365-3.59l5.503-2.426c1.298-.648 2.535-.563 3.535.103Z" fill="#00A3FF"/><path d="M14.07 9.636c.72.854 1.564 1.925 1.15 4.468l-1.128 5.998.207 4.83c.043 1.72.872 2.494 2.334 2.494h3.669c1.164 0 1.633-.883 2.102-1.997l2.797-6.858.287 6.549c.024 1.453.767 2.312 2.108 2.312h4.18c1.189 0 1.682-.714 2.206-1.991l5.339-13.135c.579-1.362.243-2.676-1.2-2.676h-2.688c-1 0-1.664.34-2.06 1.284l-3.601 8.8-.33-7.85c-.054-1.67-.859-2.228-1.791-2.228h-2.724c-1.079 0-1.706.418-2.042 1.235l-3.62 8.85-.322-8.045c-.049-1.507-.549-2.04-1.768-2.04H14.07ZM43.21 27.426c1.616 0 2.012-1.204 2.243-2.566l2.286-12.457c.414-1.907-.055-2.778-1.89-2.778h-2.163c-1.767 0-2.37.859-2.608 2.263L38.72 25.066c-.232 1.325.25 2.36 1.62 2.36h2.87Z" fill="#fff"/><path fill-rule="evenodd" clip-rule="evenodd" d="M68.835 10.786a6.56 6.56 0 0 1 1.944 3.25c.269 1.078.287 2.24.085 3.354l-1.62 8.662c-.134.781-.317 1.592-.768 2.276-.597.908-1.542 1.392-2.718 1.392 0 0-2.109.012-2.81 0a3.786 3.786 0 0 1-1.383-.296c-.868-.362-1.82-.892-1.978-.98-.33-.181-.636-.388-.88-.673-.396-.46-.822-1.271-.713-2.572 0-.006-.018-.012-.018 0l-.158.865c-.134.763-.323 1.562-.774 2.246-.616.926-1.572 1.416-2.773 1.416h-3.065a3.54 3.54 0 0 1-1.457-.302c-.644-.283-1.27-.615-1.895-.939-.45.588-1.261 1.241-2.669 1.241 0 0-2.151.006-2.87 0a3.57 3.57 0 0 1-1.45-.314 24.478 24.478 0 0 1-1.237-.588c-.558-.297-1.168-.57-1.585-1.059a2.958 2.958 0 0 1-.633-1.392c-.35.863-.688 1.765-1.36 2.44-.603.599-1.377.907-2.303.907h-4.18a3.912 3.912 0 0 1-1.652-.369 36.66 36.66 0 0 1-2.072-1.035 2.589 2.589 0 0 1-.658-.496c-.5.914-1.334 1.9-2.913 1.9h-3.668a4.412 4.412 0 0 1-1.853-.405 33.029 33.029 0 0 1-1.92-.95c-.36-.208-.727-.444-.987-.775-.255.4-.579.762-.95 1.071a4.67 4.67 0 0 1-2.968 1.06c-.292 0-.585-.025-.877-.08-.42-.078-.805-.235-1.189-.393a16.453 16.453 0 0 1-1.968-.98c-.658-.388-1.274-.83-1.725-1.46-.719-1.01-.999-2.263-.773-3.522.17-.944.7-3.79.7-3.79-.475-.211-1.34-.586-2.023-1.004-.823-.503-1.359-1.065-1.718-1.877a4.018 4.018 0 0 1-.086-3.087 4.03 4.03 0 0 1 2.127-2.251C4.221 10.47 6.062 9.69 7.88 8.862c.792-.364 1.553-.57 2.327-.57h6.99c.506 0 .945.08 1.328.219.604.223 1.932.895 2.377 1.18.292.187.54.419.738.702.468-1.396 1.88-2.1 3.29-2.1h2.724c.463 0 .92.115 1.365.296.634.26 1.383.636 2.011.999.53.309.768.508 1.06.932l.05-.127c.578-1.398 1.687-2.106 3.296-2.106h2.669c.992 0 1.908.536 2.767.974.5-.478 1.12-.775 1.889-.902a4.548 4.548 0 0 1-2.072-3.807C40.688 2.046 42.74 0 45.264 0c.732 0 1.439.17 2.066.436.694.291 1.331.667 1.98 1.04 1.433.836 2.48 2.289 2.48 4.05 0 1.26-.523 2.41-1.358 3.233.572-.309 1.28-.466 2.096-.466h1.461c.815 0 1.61-.001 2.378.32.667.268 1.299.604 1.932.939 1.316-.811 2.779-1.26 4.132-1.26 1.255 0 2.15.212 3.022.473 1.304.387 2.468 1.18 3.382 2.021ZM48.506 4.552c0 1.773-1.45 3.214-3.236 3.214-1.785 0-3.235-1.434-3.235-3.214 0-1.774 1.45-3.214 3.236-3.214 1.785 0 3.235 1.44 3.235 3.214Zm-36.538 5.617c1.054.763 1.645 1.883 1.322 3.48l-2.084 11.072c-.305 1.803-2.054 2.99-3.87 2.65-1.712-.326-2.974-1.924-2.632-3.843l1.182-6.41-.738.333a2.712 2.712 0 0 1-3.583-1.368 2.723 2.723 0 0 1 1.365-3.59l5.503-2.427c1.298-.647 2.535-.563 3.534.103Zm3.254 3.934c.414-2.542-.43-3.613-1.15-4.467h3.106c1.218 0 1.718.533 1.767 2.04l.323 8.045 3.62-8.85c.335-.817.962-1.235 2.041-1.235h2.724c.932 0 1.737.557 1.792 2.228l.329 7.85 3.601-8.8c.396-.945 1.06-1.284 2.06-1.284h2.687c1.444 0 1.78 1.314 1.2 2.676L33.985 25.44c-.524 1.277-1.017 1.991-2.205 1.991h-4.18c-1.341 0-2.085-.86-2.11-2.312l-.286-6.55-2.797 6.859c-.469 1.113-.938 1.997-2.102 1.997h-3.669c-1.462 0-2.29-.775-2.334-2.494l-.207-4.83 1.128-5.998ZM43.21 27.427c1.614 0 2.01-1.204 2.242-2.566l2.285-12.457c.415-1.907-.055-2.779-1.889-2.779h-2.163c-1.767 0-2.37.86-2.608 2.264l-2.359 13.178c-.231 1.325.25 2.36 1.621 2.36h2.87Zm17.264-9.212-1.14 6.797c-.244 1.525.408 2.415 1.633 2.415h2.81c1.596 0 1.944-1.253 2.169-2.566l1.627-8.692c.365-1.725.06-3.905-1.572-5.357-.981-.878-1.792-1.187-3.56-1.187-2.333 0-4.99 1.67-6.069 3.868l.214-1.09c.493-2.203-.445-2.772-2.011-2.772h-2.023c-1.95 0-2.377 1.053-2.609 2.258l-2.382 13.123c-.201.89-.08 2.415 1.681 2.415h2.822c1.657 0 2.005-1.32 2.224-2.56l1.146-6.295c.262-1.435.481-2.143.975-2.664.762-.865 2.26-1.24 3.321-.381.67.557.902 1.44.743 2.688Z" fill="#000"/><path d="m59.337 25.011 1.14-6.797c.158-1.247-.073-2.13-.743-2.688-1.061-.86-2.56-.484-3.322.382-.493.52-.713 1.228-.975 2.663l-1.145 6.295c-.22 1.24-.567 2.56-2.225 2.56h-2.821c-1.761 0-1.883-1.525-1.682-2.415l2.383-13.123c.231-1.204.658-2.257 2.608-2.257h2.023c1.566 0 2.504.569 2.011 2.772l-.213 1.09c1.078-2.198 3.735-3.868 6.07-3.868 1.766 0 2.577.308 3.558 1.186 1.633 1.453 1.938 3.632 1.572 5.357L65.95 24.86c-.225 1.313-.573 2.566-2.17 2.566H60.97c-1.224 0-1.877-.89-1.633-2.415Z" fill="#fff"/></svg>